#!OML:ASF I:\Actors\actors\Patient Classification 1\Patient 1\Session 1\Subject1.ASF
:FULLY-SPECIFIED
:DEGREES
518
root 0.726199 17.5454 8.4918 14.9663 24.3319 -8.81763
lowerback 4.15558 3.28623 2.40069
upperback -6.97182 4.8995 2.16834
thorax -9.71743 2.33664 0.350537
lowerneck -12.5478 -0.863954 6.77654
upperneck -26.938 1.89134 13.6243
head -6.43837 -0.225376 3.30245
rclavicle 9.27827e-014 1.3418e-014
rhumerus 24.8725 63.3766 -57.9167
rradius 42.3879
rwrist 14.4244
rhand 10.1311 -27.4789
rfingers 7.12502
rthumb 35.2507 -53.976
lclavicle 9.27827e-014 1.3418e-014
lhumerus -10.0129 -67.1429 82.8654
lradius 42.4871
lwrist 18.1839
lhand -17.8312 -8.32525
lfingers 7.12502
lthumb 8.43324 21.4864
rfemur -4.46411 31.5279 21.7194
rtibia -1.36812
rfoot -42.621 -46.7514
rtoes 31.5692
lfemur -16.278 -48.1705 3.92547
ltibia -5.84585
lfoot -4.09142 39.7786
ltoes -6.45347
519
root 0.729378 17.5453 8.48578 14.9009 24.3709 -8.85851
lowerback 4.31959 3.28817 2.41857
upperback -6.98041 4.92039 2.26069
thorax -9.83287 2.34749 0.425254
lowerneck -12.6918 -0.845023 6.82192
upperneck -27.0991 1.98467 13.8646
head -6.47908 -0.199625 3.38092
rclavicle -3.69056e-014 -8.00108e-015
rhumerus 24.843 63.1079 -57.8411
rradius 42.36
rwrist 14.5548
rhand 10.1326 -27.2806
rfingers 7.12502
rthumb 35.2521 -53.7774
lclavicle -3.69056e-014 -8.00108e-015
lhumerus -10.2286 -67.1501 83.1966
lradius 42.5214
lwrist 18.3407
lhand -17.9979 -8.26017
lfingers 7.12502
lthumb 8.27238 21.5579
rfemur -4.4343 31.3457 21.7709
rtibia -1.35782
rfoot -42.4772 -46.6285
rtoes 31.5403
lfemur -16.2912 -48.1963 3.95122
ltibia -5.80714
lfoot -3.98888 39.7546
ltoes -6.60701
520
root 0.7318 17.5466 8.47974 14.8811 24.4014 -8.81191
lowerback 4.52534 3.30777 2.36546
upperback -7.01034 4.95713 2.30175
thorax -9.9981 2.36809 0.479594
lowerneck -12.8028 -0.806214 6.89698
upperneck -27.3562 2.12879 14.1057
head -6.56205 -0.158257 3.45722
rclavicle -7.50598e-014 -2.75317e-014
rhumerus 24.6802 62.8367 -57.9098
rradius 42.2572
rwrist 14.7523
rhand 10.228 -27.2032
rfingers 7.12502
rthumb 35.3426 -53.6786
lclavicle -7.50598e-014 -2.75317e-014
lhumerus -10.4262 -67.2796 83.4676
lradius 42.5756
lwrist 18.3817
lhand -17.9884 -8.26565
lfingers 7.12502
lthumb 8.28153 21.552
rfemur -4.39251 31.2368 21.7295
rtibia -1.38557
rfoot -42.3856 -46.5862
rtoes 31.597
lfemur -16.3227 -48.237 3.8892
ltibia -5.74748
lfoot -3.92713 39.7379
ltoes -6.72858
521
root 0.73297 17.5497 8.47337 14.8214 24.3568 -8.80779
lowerback 4.82657 3.34422 2.33571
upperback -7.06089 5.02335 2.33399
thorax -10.2415 2.39929 0.501046
lowerneck -12.8256 -0.737024 7.05026
upperneck -27.5463 2.27563 14.2
head -6.63703 -0.11586 3.46819
rclavicle -5.75979e-014 -3.91606e-014
rhumerus 24.4355 62.634 -58.0787
rradius 42.1325
rwrist 14.9474
rhand 10.453 -27.1799
rfingers 7.12502
rthumb 35.5558 -53.6043
lclavicle -5.75979e-014 -3.91606e-014
lhumerus -10.6932 -67.4094 83.7237
lradius 42.6468
lwrist 18.2847
lhand -17.8927 -8.28879
lfingers 7.12502
lthumb 8.37393 21.5252
rfemur -4.33713 31.1904 21.7306
rtibia -1.41312
rfoot -42.2409 -46.5927
rtoes 31.5327
lfemur -16.2342 -48.2181 3.76962
ltibia -5.70032
lfoot -3.98207 39.7443
ltoes -6.73645
522
root 0.732093 17.5529 8.46788 14.7334 24.2904 -8.86432
lowerback 5.11709 3.37966 2.33518
upperback -7.09072 5.0904 2.37701
thorax -10.4546 2.42956 0.518583
lowerneck -13.0533 -0.731399 7.25949
upperneck -27.4342 2.23058 14.2177
head -6.56621 -0.140946 3.43761
rclavicle 3.08116e-015 1.40143e-014
rhumerus 24.1626 62.397 -58.3395
rradius 41.9991
rwrist 15.2059
rhand 10.5199 -27.2269
rfingers 7.12502
rthumb 35.6193 -53.6361
lclavicle 3.08116e-015 1.40143e-014
lhumerus -10.9005 -67.5234 83.8427
lradius 42.7873
lwrist 18.21
lhand -17.7897 -8.25596
lfingers 7.12502
lthumb 8.47333 21.554
rfemur -4.28108 31.2807 21.8053
rtibia -1.41333
rfoot -42.2602 -46.6253
rtoes 31.4454
lfemur -16.1093 -48.1584 3.70423
ltibia -5.68403
lfoot -4.05557 39.7331
ltoes -6.60649
